<svg width="94" height="60" viewBox="0 0 94 60" fill="none" xmlns="http://www.w3.org/2000/svg">
<path d="M71.9998 59.1668V55.0002C71.9998 45.7954 64.5379 38.3335 55.3332 38.3335H38.6665C29.4618 38.3335 21.9998 45.7954 21.9998 55.0002V59.1668M92.8332 59.1668V55.0002C92.8332 45.7954 85.3712 38.3335 76.1665 38.3335H74.0832M1.1665 59.1668V55.0002C1.1665 45.7954 8.62842 38.3335 17.8332 38.3335H19.9165M67.8332 25.8335C74.7367 25.8335 80.3332 20.2371 80.3332 13.3335C80.3332 6.42994 74.7367 0.833496 67.8332 0.833496M26.1665 25.8335C19.2629 25.8335 13.6665 20.2371 13.6665 13.3335C13.6665 6.42994 19.2629 0.833496 26.1665 0.833496M59.4998 13.3335C59.4998 20.2371 53.9034 25.8335 46.9998 25.8335C40.0963 25.8335 34.4998 20.2371 34.4998 13.3335C34.4998 6.42994 40.0963 0.833496 46.9998 0.833496C53.9034 0.833496 59.4998 6.42994 59.4998 13.3335Z" stroke="white" stroke-width="1.5" stroke-linecap="round" stroke-linejoin="round"/>
</svg>
