<svg width="942" height="292" viewBox="0 0 942 292" fill="none" xmlns="http://www.w3.org/2000/svg">
<path d="M514.715 222.203C506.633 222.203 499.391 220.89 492.989 218.264C486.586 215.638 481.443 211.752 477.56 206.605C473.781 201.459 471.787 195.261 471.577 188.014H500.231C500.651 192.11 502.068 195.261 504.482 197.467C506.896 199.568 510.044 200.618 513.928 200.618C517.916 200.618 521.065 199.725 523.374 197.94C525.683 196.049 526.838 193.476 526.838 190.22C526.838 187.489 525.893 185.23 524.004 183.445C522.22 181.659 519.963 180.189 517.234 179.033C514.61 177.878 510.832 176.565 505.899 175.095C498.761 172.889 492.936 170.683 488.423 168.477C483.91 166.272 480.026 163.015 476.773 158.709C473.519 154.402 471.892 148.783 471.892 141.851C471.892 131.557 475.618 123.522 483.07 117.745C490.522 111.863 500.231 108.922 512.196 108.922C524.371 108.922 534.185 111.863 541.637 117.745C549.089 123.522 553.077 131.61 553.602 142.008H524.476C524.266 138.437 522.954 135.654 520.54 133.658C518.126 131.557 515.03 130.507 511.251 130.507C507.998 130.507 505.374 131.4 503.38 133.185C501.385 134.866 500.388 137.334 500.388 140.59C500.388 144.161 502.068 146.945 505.426 148.941C508.785 150.936 514.033 153.089 521.17 155.4C528.307 157.816 534.08 160.127 538.488 162.333C543.001 164.538 546.885 167.742 550.138 171.943C553.392 176.145 555.019 181.554 555.019 188.172C555.019 194.474 553.392 200.198 550.138 205.345C546.99 210.492 542.372 214.588 536.284 217.634C530.196 220.68 523.007 222.203 514.715 222.203ZM723.671 110.497L694.86 221.1H662.271L644.638 148.31L626.375 221.1H593.785L565.761 110.497H594.572L610.474 191.007L630.153 110.497H659.752L678.644 191.007L694.703 110.497H723.671ZM805.974 201.564H764.725L758.113 221.1H729.932L769.921 110.497H801.094L841.083 221.1H812.586L805.974 201.564ZM799.047 180.766L785.35 140.275L771.81 180.766H799.047ZM937.482 146.105C937.482 152.512 936.012 158.394 933.073 163.751C930.134 169.002 925.621 173.256 919.534 176.513C913.446 179.769 905.889 181.397 896.863 181.397H880.174V221.1H853.253V110.497H896.863C905.679 110.497 913.131 112.02 919.219 115.066C925.306 118.113 929.872 122.314 932.916 127.671C935.96 133.028 937.482 139.172 937.482 146.105ZM894.816 159.969C899.959 159.969 903.79 158.761 906.309 156.346C908.828 153.93 910.087 150.516 910.087 146.105C910.087 141.693 908.828 138.279 906.309 135.864C903.79 133.448 899.959 132.24 894.816 132.24H880.174V159.969H894.816Z" fill="white"/>
<path d="M134.924 62.7059V173.309H108.003V106.979L83.2849 173.309H61.5586L36.6835 106.821V173.309H9.76172V62.7059H41.5641L72.5792 139.277L103.279 62.7059H134.924ZM180.734 62.7059V128.879C180.734 135.496 182.361 140.59 185.614 144.161C188.868 147.733 193.644 149.518 199.941 149.518C206.239 149.518 211.067 147.733 214.426 144.161C217.784 140.59 219.464 135.496 219.464 128.879V62.7059H246.385V128.721C246.385 138.594 244.286 146.945 240.088 153.772C235.889 160.599 230.222 165.746 223.085 169.212C216.052 172.679 208.18 174.412 199.469 174.412C190.757 174.412 182.938 172.731 176.011 169.37C169.189 165.904 163.783 160.757 159.795 153.93C155.806 146.997 153.812 138.594 153.812 128.721V62.7059H180.734ZM305.279 174.412C297.197 174.412 289.955 173.099 283.553 170.473C277.15 167.847 272.007 163.961 268.124 158.814C264.345 153.667 262.351 147.47 262.141 140.222H290.795C291.215 144.319 292.631 147.47 295.046 149.676C297.46 151.776 300.608 152.827 304.492 152.827C308.48 152.827 311.629 151.934 313.938 150.148C316.247 148.258 317.402 145.684 317.402 142.428C317.402 139.697 316.457 137.439 314.568 135.653C312.783 133.868 310.527 132.397 307.798 131.242C305.174 130.087 301.395 128.774 296.462 127.303C289.325 125.097 283.5 122.892 278.987 120.686C274.474 118.48 270.59 115.224 267.337 110.917C264.083 106.611 262.456 100.992 262.456 94.0592C262.456 83.7656 266.182 75.7304 273.634 69.9534C281.086 64.0714 290.795 61.1304 302.76 61.1304C314.935 61.1304 324.749 64.0714 332.201 69.9534C339.653 75.7304 343.641 83.8181 344.166 94.2167H315.04C314.83 90.6455 313.518 87.862 311.104 85.8664C308.69 83.7656 305.594 82.7153 301.815 82.7153C298.562 82.7153 295.938 83.6081 293.943 85.3937C291.949 87.0743 290.952 89.5426 290.952 92.7987C290.952 96.37 292.631 99.1534 295.99 101.149C299.349 103.145 304.597 105.298 311.734 107.609C318.871 110.025 324.644 112.335 329.052 114.541C333.565 116.747 337.449 119.951 340.702 124.152C343.956 128.353 345.583 133.763 345.583 140.38C345.583 146.682 343.956 152.407 340.702 157.553C337.554 162.7 332.935 166.797 326.848 169.843C320.76 172.889 313.571 174.412 305.279 174.412ZM389.072 62.7059V173.309H362.151V62.7059H389.072Z" fill="white"/>
<path d="M361.821 291.537C389.488 291.537 411.916 275.737 411.916 256.246C411.916 236.755 389.488 220.955 361.821 220.955C334.155 220.955 311.727 236.755 311.727 256.246C311.727 275.737 334.155 291.537 361.821 291.537Z" fill="white"/>
<path d="M453.475 24.406L474.504 15.1875L412.887 254.176L388.405 266.824L453.475 24.406Z" fill="white"/>
</svg>
