<svg width="78" height="78" viewBox="0 0 78 78" fill="none" xmlns="http://www.w3.org/2000/svg">
<path d="M18.1667 20.25V30.6667H30.6667M59.8333 57.75V47.3333H47.3333M55.6667 30.6667C53.9293 27.878 50.9781 25.5708 47.2576 24.0925C43.5372 22.6143 39.2492 22.0451 35.0396 22.4708C30.83 22.8965 26.9269 24.294 23.9184 26.4527L18.1667 30.1628M22.3333 47.3333C24.0707 50.122 27.0219 52.4292 30.7423 53.9075C34.4628 55.3857 38.7508 55.9549 42.9604 55.5292C47.17 55.1035 51.0731 53.706 54.0816 51.5473L59.8333 47.8372M35.0396 76.2934C36.3411 76.43 37.6624 76.5 39 76.5C59.7107 76.5 76.5 59.7107 76.5 39C76.5 18.2893 59.7107 1.5 39 1.5C18.2893 1.5 1.5 18.2893 1.5 39C1.5 50.7803 6.93194 61.2919 15.4278 68.1667" stroke="white" stroke-width="1.5" stroke-linecap="round" stroke-linejoin="round"/>
</svg>
